<?xml version="1.0" encoding="UTF-8" standalone="no"?>
<svg
   xmlns:dc="http://purl.org/dc/elements/1.1/"
   xmlns:cc="http://creativecommons.org/ns#"
   xmlns:rdf="http://www.w3.org/1999/02/22-rdf-syntax-ns#"
   xmlns:svg="http://www.w3.org/2000/svg"
   xmlns="http://www.w3.org/2000/svg"
   xmlns:sodipodi="http://sodipodi.sourceforge.net/DTD/sodipodi-0.dtd"
   xmlns:inkscape="http://www.inkscape.org/namespaces/inkscape"
   width="466"
   height="466"
   id="svg2"
   version="1.1"
   inkscape:version="0.48.5 r10040"
   sodipodi:docname="logo.svg">
  <metadata
     id="metadata18">
    <rdf:RDF>
      <cc:Work
         rdf:about="">
        <dc:format>image/svg+xml</dc:format>
        <dc:type
           rdf:resource="http://purl.org/dc/dcmitype/StillImage" />
        <dc:title></dc:title>
      </cc:Work>
    </rdf:RDF>
  </metadata>
  <defs
     id="defs16" />
  <sodipodi:namedview
     pagecolor="#ffffff"
     bordercolor="#666666"
     borderopacity="1"
     objecttolerance="10"
     gridtolerance="10"
     guidetolerance="10"
     inkscape:pageopacity="0"
     inkscape:pageshadow="2"
     inkscape:window-width="1366"
     inkscape:window-height="710"
     id="namedview14"
     showgrid="false"
     inkscape:zoom="0.50643777"
     inkscape:cx="233"
     inkscape:cy="233"
     inkscape:window-x="0"
     inkscape:window-y="0"
     inkscape:window-maximized="1"
     inkscape:current-layer="svg2" />
  <circle
     cx="233"
     cy="233"
     r="231"
     id="circle4"
     style="fill:#ff0000" />
  <path
     d="M 233,459 a 226 226 0 0 1 0,-452 a 113 113 0 0 1 0,226 z"
     fill="#fff"
     id="path6" />
  <circle
     cx="233"
     cy="346"
     r="113"
     fill="#000"
     id="circle8"
     style="fill:#ff0000" />
  <circle
     cx="233"
     cy="120"
     r="30"
     id="circle10"
     style="fill:#ff0000" />
  <circle
     cx="233"
     cy="346"
     r="30"
     fill="#fff"
     id="circle12" />
  <path
     style="opacity:0;fill:#ff0000;fill-opacity:1;stroke:#8f9c00;stroke-width:8.09576225;stroke-linecap:butt;stroke-linejoin:miter;stroke-miterlimit:4;stroke-opacity:1;stroke-dasharray:none"
     d="M 191.21808,459.01421 C 133.85074,448.20192 76.945762,411.52456 44.987954,364.76347 c -11.526698,-16.86602 -7.531423,-15.5 4.703968,1.60832 35.352867,49.4327 93.974558,84.02831 155.071638,91.51554 23.76812,2.91272 33.32024,2.42066 14.80932,-0.76285 -39.56334,-6.80414 -69.30395,-27.84325 -85.83472,-60.72122 -31.01631,-61.68824 -1.5011,-132.99652 64.90966,-156.82071 4.44967,-1.59629 20.13833,-4.13062 34.86367,-5.63183 32.71741,-3.33549 48.98065,-8.88941 68.09392,-23.25409 28.24049,-21.2243 44.42192,-53.58985 44.51878,-89.04496 C 346.18425,99.664865 343.76933,88.701297 334.5509,69.110169 319.80774,37.777826 285.99938,13.086945 250.22472,7.525183 230.71908,4.492708 196.0271,7.6968345 171.05968,14.83681 123.28893,28.497896 77.868225,60.230251 49.691922,99.628207 37.456531,116.73653 33.461256,118.10255 44.987954,101.23653 77.768126,53.272143 134.91898,17.050156 194.07398,6.7463949 219.7004,2.2827228 265.42633,3.7853592 287.62039,9.8204982 374.0703,33.328472 435.35084,95.418377 457.08862,181.52699 c 6.19312,24.53248 6.19312,78.41354 0,102.94603 -21.73783,86.10882 -82.87232,148.05876 -169.46823,171.72868 -20.80064,5.68559 -73.06774,7.21048 -96.40231,2.81251 l 0,0 z m 56.155,-85.89895 c 11.82633,-6.03334 16.00578,-14.02085 15.16451,-28.98155 -0.74294,-13.21224 -4.77394,-19.73399 -15.71623,-25.42725 -7.8815,-4.10076 -23.07573,-3.49776 -30.81879,1.22308 -11.13891,6.79122 -16.86867,24.24686 -12.09477,36.84658 6.67136,17.60765 26.42404,25.03292 43.46528,16.33914 l 0,0 z"
     id="path2995"
     inkscape:connector-curvature="0" />
  <path
     style="opacity:0;fill:#ff0000;fill-opacity:1;stroke:#8f9c00;stroke-width:8.09576225;stroke-linecap:butt;stroke-linejoin:miter;stroke-miterlimit:4;stroke-opacity:1;stroke-dasharray:none"
     d="m 204.76356,461.34606 c -2.17203,-0.4615 -11.05763,-2.20218 -19.74576,-3.86823 -17.32325,-3.32191 -50.40785,-15.58596 -63.81614,-23.65586 -13.44951,-8.0947 -8.59191,-7.37319 9.17348,1.36258 29.34768,14.43109 63.88154,23.78254 85.96036,23.27727 l 10.1484,-0.23225 -9.49638,-1.5954 c -53.12756,-8.92546 -90.94078,-49.9865 -95.47958,-103.68042 -3.40378,-40.26668 20.43324,-83.96824 56.79027,-104.11635 17.21788,-9.54166 30.32117,-13.03909 57.08587,-15.23685 23.72045,-1.94778 40.07415,-6.38426 54.33007,-14.73877 26.07742,-15.28239 45.79898,-41.03286 53.34247,-69.64937 3.87921,-14.71592 3.8433,-43.73576 -0.0725,-58.594759 -9.34535,-35.461761 -37.57924,-65.879 -72.61968,-78.235312 -35.62511,-12.56249049 -99.37278,-3.7000829 -143.25465,19.915726 -7.95701,4.282208 -15.06548,7.757573 -15.79661,7.723036 -2.49194,-0.117722 6.54464,-6.167895 17.75957,-11.890377 49.90301,-25.463305 111.84951,-31.6203354 165.534,-16.452873 22.43085,6.337381 57.5187,23.828117 76.43628,38.102273 36.56854,27.592597 65.05479,67.001936 79.34809,109.774286 45.00832,134.6862 -39.88705,275.55672 -180.88134,300.14407 -15.38254,2.68248 -55.11643,3.69358 -64.74625,1.64758 z m 28.09657,-1.8704 c -0.65613,-0.65613 -2.3592,-0.72626 -3.7846,-0.15579 -1.57518,0.63032 -1.1073,1.09822 1.19297,1.19296 2.08153,0.0857 3.24777,-0.38095 2.59163,-1.03709 l 0,-8e-5 z m 14.57966,-85.87282 c 1.75159,-0.90157 5.97225,-4.81405 9.37924,-8.69439 5.36484,-6.11023 6.19453,-8.53548 6.19453,-18.10722 0,-14.17039 -5.0413,-22.61759 -16.93415,-28.37482 -29.58702,-14.32283 -58.02772,22.06176 -36.85905,47.1543 8.90004,10.54977 26.23829,14.18901 38.21943,8.02213 l 0,0 z"
     id="path2997"
     inkscape:connector-curvature="0" />
  <path
     style="opacity:0;fill:#ff0000;fill-opacity:1;stroke:#8f9c00;stroke-width:8.09576225;stroke-linecap:butt;stroke-linejoin:miter;stroke-miterlimit:4;stroke-opacity:1;stroke-dasharray:none"
     d="m 219.54207,145.02453 c -8.01895,-4.26701 -15.70083,-16.48412 -15.70083,-24.97029 0,-8.48618 7.68188,-20.703289 15.70083,-24.970295 12.9442,-6.887801 26.16638,-3.806185 36.53372,8.514705 4.79933,5.70368 5.29091,7.62674 4.55396,17.81506 -0.62517,8.64283 -1.99682,12.67426 -5.63854,16.57228 -10.34594,11.0741 -23.10444,13.60734 -35.44914,7.03854 l 0,0 z"
     id="path2999"
     inkscape:connector-curvature="0" />
  <path
     style="opacity:0;fill:#ff0000;fill-opacity:1;stroke:#8f9c00;stroke-width:8.09576225;stroke-linecap:butt;stroke-linejoin:miter;stroke-miterlimit:4;stroke-opacity:1;stroke-dasharray:none"
     d="m 219.54207,145.02453 c -8.01895,-4.26701 -15.70083,-16.48412 -15.70083,-24.97029 0,-8.48618 7.68188,-20.703289 15.70083,-24.970295 12.9442,-6.887801 26.16638,-3.806185 36.53372,8.514705 4.79933,5.70368 5.29091,7.62674 4.55396,17.81506 -0.62517,8.64283 -1.99682,12.67426 -5.63854,16.57228 -10.34594,11.0741 -23.10444,13.60734 -35.44914,7.03854 l 0,0 z"
     id="path3001"
     inkscape:connector-curvature="0" />
</svg>
